<svg class="svg-icon" style="width: 1em; height: 1em;vertical-align: middle;fill: currentColor;overflow: hidden;" viewBox="0 0 1024 1024" version="1.1" xmlns="http://www.w3.org/2000/svg"><path d="M951.838 183.266H654.842l-10.832-64.974a53.664 53.664 0 0 0-53.102-44.984h-157.82a53.664 53.664 0 0 0-53.102 44.984l-10.832 64.974H72.162C32.372 183.266 0 215.638 0 255.428v623.106c0 39.79 32.372 72.162 72.162 72.162H951.84c39.79 0 72.162-32.372 72.162-72.162V255.428c-0.002-39.79-32.374-72.162-72.164-72.162zM413.884 123.94a19.414 19.414 0 0 1 19.206-16.272h157.82a19.41 19.41 0 0 1 19.206 16.272l9.888 59.326H403.994l9.89-59.326z m575.754 754.592c0 20.842-16.956 37.798-37.798 37.798H72.162c-20.842 0-37.798-16.956-37.798-37.798V255.428c0-20.842 16.956-37.798 37.798-37.798H951.84c20.842 0 37.798 16.956 37.798 37.798v623.104z" fill="" /><path d="M741.77 700.06l-130.398-130.398 130.4-130.398c13.838-13.844 13.838-36.37-0.006-50.214l-51.834-51.836c-13.846-13.844-36.37-13.844-50.214 0l-130.398 130.398-130.398-130.398c-6.708-6.708-15.624-10.4-25.108-10.4s-18.402 3.696-25.108 10.4l-51.834 51.834c-6.708 6.706-10.402 15.624-10.402 25.108s3.692 18.402 10.4 25.108l130.398 130.398-78.562 78.564a17.156 17.156 0 0 0-3.802 5.768l-51.834 129.59a17.186 17.186 0 0 0 15.954 23.562 17.184 17.184 0 0 0 6.378-1.23l129.588-51.834a17.206 17.206 0 0 0 5.768-3.802l78.564-78.564 130.398 130.398c6.922 6.92 16.016 10.382 25.108 10.382s18.186-3.462 25.108-10.382l51.836-51.836c13.84-13.846 13.84-36.372-0.002-50.218z m-77.756-338.548a1.148 1.148 0 0 1 1.622 0l51.834 51.834a1.152 1.152 0 0 1-0.002 1.622l-26.728 26.728-53.454-53.456 26.728-26.728z m-362.85 53.456a1.09 1.09 0 0 1-0.334-0.81c0-0.474 0.252-0.726 0.334-0.812l51.836-51.834a1.088 1.088 0 0 1 0.808-0.334c0.474 0 0.726 0.252 0.81 0.334l26.728 26.728-13.768 13.768a17.18 17.18 0 0 0 0 24.298 17.12 17.12 0 0 0 12.148 5.032 17.12 17.12 0 0 0 12.148-5.032l13.77-13.77 27.538 27.538-13.768 13.768a17.18 17.18 0 0 0 0 24.298c3.354 3.356 7.752 5.032 12.148 5.032s8.794-1.676 12.148-5.032l13.77-13.77 27.538 27.538-53.456 53.456-130.398-130.396z m18.692 344.154l27.27-68.174 40.906 40.906-68.176 27.268z m98.746-45.29l-53.454-53.454 247.84-247.84 53.454 53.456-247.84 247.838z m298.864 12.15l-51.834 51.834a1.148 1.148 0 0 1-1.622 0l-130.398-130.398 53.456-53.456 27.54 27.538-13.768 13.768a17.18 17.18 0 0 0 24.296 24.298l13.768-13.768 27.538 27.538-13.77 13.768a17.18 17.18 0 0 0 0 24.298c3.354 3.356 7.752 5.032 12.148 5.032s8.794-1.676 12.148-5.032l13.77-13.77 26.728 26.728a1.146 1.146 0 0 1 0 1.622zM163.794 256.572a17.182 17.182 0 0 0-17.182 17.182c0 30.946-25.178 56.126-56.126 56.126a17.182 17.182 0 0 0 0 34.364c49.894 0 90.488-40.594 90.488-90.488a17.18 17.18 0 0 0-17.18-17.184zM90.488 769.718a17.182 17.182 0 0 0 0 34.364c30.946 0 56.126 25.178 56.126 56.126a17.182 17.182 0 0 0 34.364 0c-0.002-49.896-40.596-90.49-90.49-90.49zM933.512 769.718c-49.894 0-90.488 40.594-90.488 90.488a17.182 17.182 0 0 0 34.364 0c0-30.946 25.178-56.126 56.126-56.126a17.182 17.182 0 1 0-0.002-34.362zM933.512 329.88c-30.946 0-56.126-25.178-56.126-56.126a17.182 17.182 0 0 0-34.364 0c0 49.894 40.594 90.488 90.488 90.488a17.182 17.182 0 0 0 0.002-34.362z" fill="" /></svg>